<?xml version="1.0" encoding="utf-8"?>
<!-- Generator: Adobe Illustrator 19.0.0, SVG Export Plug-In . SVG Version: 6.00 Build 0)  -->
<svg version="1.1" xmlns="http://www.w3.org/2000/svg" xmlns:xlink="http://www.w3.org/1999/xlink" x="0px" y="0px"
	 viewBox="0 0 500 244" enable-background="new 0 0 500 244" xml:space="preserve">
<g id="black_x5F_rus">
</g>
<g id="white_x5F_rus">
</g>
<g id="black_x5F_eng">
	<g id="XMLID_41_">
		<g id="XMLID_180_">
			<path id="XMLID_196_" fill="#FFFFFF" d="M226.04,89.719h8.824v48.743h-8.824v-3.717c-1.722,1.638-3.45,2.817-5.182,3.54
				c-1.733,0.722-3.611,1.083-5.634,1.083c-4.541,0-8.469-1.762-11.784-5.284c-3.315-3.524-4.972-7.903-4.972-13.14
				c0-5.43,1.604-9.88,4.811-13.349c3.207-3.469,7.102-5.204,11.687-5.204c2.109,0,4.089,0.399,5.94,1.196
				c1.851,0.797,3.563,1.993,5.134,3.588V89.719z M216.764,110.535c-2.728,0-4.994,0.964-6.797,2.893
				c-1.804,1.929-2.706,4.402-2.706,7.418c0,3.038,0.917,5.538,2.754,7.499c1.837,1.961,4.097,2.941,6.781,2.941
				c2.771,0,5.069-0.964,6.894-2.893c1.825-1.929,2.739-4.455,2.739-7.58c0-3.059-0.913-5.538-2.739-7.434
				C221.864,111.483,219.555,110.535,216.764,110.535z"/>
			<path id="XMLID_193_" fill="#FFFFFF" d="M250.537,88.814c1.547,0,2.873,0.561,3.98,1.681c1.107,1.121,1.66,2.478,1.66,4.073
				c0,1.573-0.548,2.914-1.644,4.024c-1.096,1.11-2.407,1.664-3.932,1.664c-1.569,0-2.907-0.565-4.013-1.697
				c-1.107-1.131-1.66-2.505-1.66-4.121c0-1.551,0.548-2.877,1.643-3.976C247.668,89.363,248.989,88.814,250.537,88.814z
				 M246.125,103.295h8.824v35.167h-8.824V103.295z"/>
			<path id="XMLID_191_" fill="#FFFFFF" d="M262.38,103.295h8.638l7.071,20.008l7.609-20.008h5.283l7.471,19.782l7.08-19.782h8.693
				l-12.832,35.167h-5.592l-7.499-20.04l-7.725,20.04h-5.528L262.38,103.295z"/>
			<path id="XMLID_188_" fill="#FFFFFF" d="M353.79,123.432h-28.347c0.409,2.5,1.503,4.488,3.281,5.963
				c1.777,1.476,4.045,2.214,6.804,2.214c3.297,0,6.13-1.152,8.501-3.459l7.434,3.491c-1.854,2.629-4.073,4.574-6.658,5.834
				c-2.586,1.261-5.656,1.891-9.212,1.891c-5.517,0-10.009-1.74-13.479-5.22c-3.47-3.48-5.204-7.839-5.204-13.075
				c0-5.366,1.73-9.821,5.188-13.365c3.459-3.545,7.795-5.317,13.01-5.317c5.538,0,10.041,1.772,13.511,5.317
				c3.469,3.544,5.204,8.226,5.204,14.044L353.79,123.432z M344.966,116.482c-0.583-1.961-1.733-3.556-3.449-4.784
				c-1.716-1.228-3.707-1.842-5.974-1.842c-2.46,0-4.619,0.69-6.475,2.069c-1.165,0.862-2.244,2.381-3.238,4.558H344.966z"/>
			<path id="XMLID_181_" fill="#FFFFFF" d="M369.03,89.719v17.454c1.594-1.594,3.318-2.79,5.172-3.588
				c1.853-0.797,3.835-1.196,5.947-1.196c4.59,0,8.49,1.735,11.701,5.204c3.211,3.47,4.816,7.919,4.816,13.349
				c0,5.236-1.66,9.616-4.978,13.14c-3.319,3.523-7.251,5.284-11.798,5.284c-2.026,0-3.911-0.361-5.656-1.083
				c-1.745-0.722-3.48-1.902-5.204-3.54v3.717h-8.759V89.719H369.03z M378.307,110.535c-2.78,0-5.086,0.949-6.917,2.844
				c-1.832,1.896-2.747,4.375-2.747,7.434c0,3.125,0.916,5.651,2.747,7.58c1.831,1.928,4.137,2.893,6.917,2.893
				c2.693,0,4.961-0.98,6.804-2.941c1.842-1.961,2.763-4.461,2.763-7.499c0-3.017-0.905-5.49-2.715-7.418
				C383.349,111.499,381.065,110.535,378.307,110.535z"/>
		</g>
		<g id="XMLID_42_">
			<path id="XMLID_177_" fill="#FFFFFF" d="M236.6,148.091v18.408h-1.685v-2.283c-0.716,0.871-1.52,1.526-2.411,1.966
				c-0.891,0.439-1.865,0.659-2.923,0.659c-1.881,0-3.485-0.682-4.816-2.045c-1.33-1.362-1.996-3.021-1.996-4.975
				c0-1.912,0.672-3.548,2.015-4.906c1.343-1.359,2.958-2.039,4.847-2.039c1.09,0,2.076,0.232,2.96,0.695
				c0.883,0.465,1.658,1.16,2.325,2.088v-7.568H236.6z M229.77,154.524c-0.951,0-1.829,0.233-2.634,0.7
				c-0.805,0.468-1.444,1.124-1.92,1.97s-0.713,1.739-0.713,2.683c0,0.935,0.239,1.829,0.719,2.683s1.124,1.518,1.933,1.993
				s1.677,0.714,2.604,0.714c0.935,0,1.82-0.236,2.658-0.708c0.837-0.472,1.48-1.109,1.933-1.914
				c0.45-0.805,0.676-1.711,0.676-2.719c0-1.536-0.506-2.821-1.518-3.854S231.249,154.524,229.77,154.524z"/>
			<path id="XMLID_174_" fill="#FFFFFF" d="M240.986,147.749c0.389,0,0.722,0.139,0.997,0.415s0.413,0.61,0.413,1.001
				c0,0.383-0.138,0.712-0.413,0.988c-0.275,0.277-0.608,0.416-0.997,0.416c-0.381,0-0.709-0.139-0.984-0.416
				c-0.275-0.276-0.413-0.605-0.413-0.988c0-0.391,0.138-0.725,0.413-1.001S240.606,147.749,240.986,147.749z M240.139,153.218
				h1.709v13.281h-1.709V153.218z"/>
			<path id="XMLID_171_" fill="#FFFFFF" d="M256.775,153.218h1.709v10.584c0,1.863-0.163,3.227-0.488,4.089
				c-0.447,1.221-1.225,2.161-2.331,2.819c-1.107,0.66-2.438,0.989-3.992,0.989c-1.14,0-2.163-0.161-3.07-0.483
				s-1.646-0.755-2.215-1.298c-0.57-0.543-1.095-1.337-1.575-2.382h1.855c0.505,0.879,1.157,1.53,1.955,1.953
				c0.799,0.424,1.789,0.635,2.971,0.635c1.165,0,2.148-0.217,2.951-0.65s1.375-0.979,1.717-1.636
				c0.343-0.657,0.514-1.718,0.514-3.183v-0.684c-0.644,0.814-1.43,1.439-2.358,1.874c-0.929,0.436-1.914,0.653-2.957,0.653
				c-1.222,0-2.371-0.303-3.446-0.909s-1.906-1.423-2.492-2.448c-0.587-1.025-0.88-2.152-0.88-3.381s0.306-2.374,0.916-3.437
				c0.611-1.062,1.456-1.902,2.536-2.521c1.079-0.618,2.218-0.928,3.415-0.928c0.994,0,1.921,0.206,2.78,0.616
				c0.859,0.411,1.688,1.089,2.486,2.032V153.218z M251.732,154.524c-0.968,0-1.867,0.233-2.697,0.701
				c-0.83,0.469-1.481,1.115-1.953,1.941s-0.708,1.719-0.708,2.68c0,1.456,0.488,2.66,1.465,3.613
				c0.977,0.951,2.242,1.428,3.796,1.428c1.571,0,2.834-0.472,3.791-1.416c0.956-0.944,1.434-2.186,1.434-3.723
				c0-1.002-0.219-1.895-0.658-2.68c-0.439-0.785-1.063-1.406-1.868-1.861C253.527,154.752,252.66,154.524,251.732,154.524z"/>
			<path id="XMLID_168_" fill="#FFFFFF" d="M262.662,147.749c0.389,0,0.722,0.139,0.997,0.415s0.413,0.61,0.413,1.001
				c0,0.383-0.138,0.712-0.413,0.988c-0.275,0.277-0.608,0.416-0.997,0.416c-0.381,0-0.709-0.139-0.984-0.416
				c-0.275-0.276-0.413-0.605-0.413-0.988c0-0.391,0.138-0.725,0.413-1.001S262.281,147.749,262.662,147.749z M261.815,153.218
				h1.709v13.281h-1.709V153.218z"/>
			<path id="XMLID_166_" fill="#FFFFFF" d="M268.489,148.286h1.709v4.932h2.71v1.477h-2.71v11.805h-1.709v-11.805h-2.331v-1.477
				h2.331V148.286z"/>
			<path id="XMLID_163_" fill="#FFFFFF" d="M288.63,153.218v13.281h-1.685v-2.283c-0.716,0.871-1.52,1.526-2.411,1.966
				c-0.891,0.439-1.865,0.659-2.924,0.659c-1.879,0-3.484-0.682-4.815-2.045c-1.33-1.362-1.995-3.021-1.995-4.975
				c0-1.912,0.671-3.548,2.014-4.906c1.343-1.359,2.958-2.039,4.846-2.039c1.091,0,2.077,0.232,2.961,0.695
				c0.883,0.465,1.658,1.16,2.325,2.088v-2.441H288.63z M281.8,154.524c-0.951,0-1.829,0.233-2.634,0.7
				c-0.805,0.468-1.444,1.124-1.92,1.97s-0.714,1.739-0.714,2.683c0,0.935,0.24,1.829,0.72,2.683s1.124,1.518,1.933,1.993
				c0.809,0.476,1.677,0.714,2.604,0.714c0.935,0,1.82-0.236,2.658-0.708c0.837-0.472,1.48-1.109,1.933-1.914
				c0.45-0.805,0.677-1.711,0.677-2.719c0-1.536-0.507-2.821-1.519-3.854S283.279,154.524,281.8,154.524z"/>
			<path id="XMLID_161_" fill="#FFFFFF" d="M292.144,148.091h1.709v18.408h-1.709V148.091z"/>
			<path id="XMLID_159_" fill="#FFFFFF" d="M310.854,154.671l-1.1,1.135c-0.913-0.887-1.807-1.33-2.68-1.33
				c-0.555,0-1.03,0.183-1.426,0.549s-0.594,0.793-0.594,1.281c0,0.432,0.163,0.843,0.489,1.233
				c0.326,0.398,1.012,0.866,2.055,1.403c1.272,0.66,2.137,1.295,2.594,1.904c0.448,0.619,0.673,1.314,0.673,2.088
				c0,1.091-0.383,2.014-1.149,2.771c-0.767,0.756-1.724,1.135-2.873,1.135c-0.767,0-1.498-0.167-2.194-0.5
				c-0.697-0.334-1.273-0.794-1.73-1.38l1.074-1.221c0.873,0.984,1.799,1.478,2.778,1.478c0.685,0,1.268-0.221,1.749-0.66
				s0.723-0.956,0.723-1.55c0-0.488-0.159-0.924-0.478-1.306c-0.318-0.375-1.036-0.847-2.153-1.416
				c-1.198-0.619-2.015-1.229-2.446-1.832c-0.433-0.602-0.648-1.289-0.648-2.062c0-1.009,0.345-1.848,1.033-2.515
				s1.559-1.001,2.61-1.001C308.383,152.876,309.614,153.474,310.854,154.671z"/>
			<path id="XMLID_54_" fill="#FFFFFF" d="M315.295,148.286h1.709v4.932h2.71v1.477h-2.71v11.805h-1.709v-11.805h-2.331v-1.477
				h2.331V148.286z"/>
			<path id="XMLID_52_" fill="#FFFFFF" d="M321.983,153.218h1.709v6.201c0,1.514,0.081,2.556,0.244,3.125
				c0.245,0.813,0.712,1.457,1.4,1.929s1.51,0.708,2.463,0.708c0.954,0,1.763-0.229,2.427-0.689s1.123-1.064,1.376-1.812
				c0.171-0.514,0.257-1.6,0.257-3.26v-6.201h1.745v6.519c0,1.831-0.214,3.21-0.641,4.138c-0.428,0.928-1.07,1.654-1.929,2.18
				c-0.859,0.524-1.936,0.787-3.229,0.787c-1.295,0-2.375-0.263-3.241-0.787c-0.867-0.525-1.514-1.258-1.941-2.197
				c-0.427-0.94-0.641-2.354-0.641-4.242V153.218z"/>
			<path id="XMLID_49_" fill="#FFFFFF" d="M350.582,148.091v18.408h-1.685v-2.283c-0.716,0.871-1.52,1.526-2.411,1.966
				c-0.891,0.439-1.865,0.659-2.923,0.659c-1.881,0-3.485-0.682-4.816-2.045c-1.33-1.362-1.996-3.021-1.996-4.975
				c0-1.912,0.672-3.548,2.015-4.906c1.343-1.359,2.958-2.039,4.847-2.039c1.09,0,2.076,0.232,2.96,0.695
				c0.883,0.465,1.658,1.16,2.325,2.088v-7.568H350.582z M343.752,154.524c-0.951,0-1.829,0.233-2.634,0.7
				c-0.805,0.468-1.444,1.124-1.92,1.97s-0.713,1.739-0.713,2.683c0,0.935,0.239,1.829,0.719,2.683s1.124,1.518,1.933,1.993
				s1.677,0.714,2.604,0.714c0.935,0,1.82-0.236,2.658-0.708c0.837-0.472,1.48-1.109,1.933-1.914
				c0.45-0.805,0.676-1.711,0.676-2.719c0-1.536-0.506-2.821-1.518-3.854S345.232,154.524,343.752,154.524z"/>
			<path id="XMLID_46_" fill="#FFFFFF" d="M354.968,147.749c0.389,0,0.722,0.139,0.997,0.415s0.413,0.61,0.413,1.001
				c0,0.383-0.138,0.712-0.413,0.988c-0.275,0.277-0.608,0.416-0.997,0.416c-0.381,0-0.709-0.139-0.984-0.416
				c-0.275-0.276-0.413-0.605-0.413-0.988c0-0.391,0.138-0.725,0.413-1.001S354.587,147.749,354.968,147.749z M354.12,153.218h1.709
				v13.281h-1.709V153.218z"/>
			<path id="XMLID_43_" fill="#FFFFFF" d="M365.594,152.876c2.046,0,3.741,0.74,5.087,2.222c1.223,1.351,1.834,2.95,1.834,4.798
				c0,1.855-0.647,3.477-1.938,4.864c-1.292,1.388-2.953,2.081-4.982,2.081c-2.039,0-3.704-0.693-4.996-2.081
				s-1.938-3.009-1.938-4.864c0-1.84,0.61-3.435,1.834-4.785C361.839,153.62,363.539,152.876,365.594,152.876z M365.587,154.548
				c-1.421,0-2.642,0.525-3.663,1.575c-1.021,1.05-1.531,2.319-1.531,3.809c0,0.96,0.233,1.855,0.699,2.686
				c0.465,0.83,1.094,1.471,1.886,1.923c0.793,0.451,1.662,0.678,2.609,0.678s1.817-0.227,2.609-0.678
				c0.792-0.452,1.421-1.093,1.887-1.923s0.698-1.726,0.698-2.686c0-1.489-0.513-2.759-1.537-3.809
				C368.219,155.073,367,154.548,365.587,154.548z"/>
		</g>
	</g>
</g>
<g id="white_x5F_eng">
	<g id="logo_2_">
		<g id="XMLID_111_">
			<g id="XMLID_113_">
				<path id="XMLID_125_" fill="#1D1924" d="M229.11,87.429h8.824v48.743h-8.824v-3.717c-1.722,1.638-3.45,2.817-5.182,3.54
					c-1.733,0.722-3.611,1.083-5.634,1.083c-4.541,0-8.469-1.762-11.784-5.284c-3.315-3.524-4.972-7.903-4.972-13.14
					c0-5.43,1.604-9.88,4.811-13.349c3.207-3.469,7.102-5.204,11.687-5.204c2.109,0,4.089,0.399,5.94,1.196
					c1.851,0.797,3.563,1.993,5.134,3.588V87.429z M219.834,108.245c-2.728,0-4.994,0.964-6.797,2.893
					c-1.804,1.929-2.706,4.402-2.706,7.418c0,3.038,0.917,5.538,2.754,7.499c1.837,1.961,4.097,2.941,6.781,2.941
					c2.771,0,5.069-0.964,6.894-2.893c1.825-1.929,2.739-4.455,2.739-7.58c0-3.059-0.913-5.538-2.739-7.434
					C224.935,109.194,222.626,108.245,219.834,108.245z"/>
				<path id="XMLID_122_" fill="#1D1924" d="M253.608,86.524c1.547,0,2.873,0.561,3.98,1.681c1.107,1.121,1.66,2.478,1.66,4.073
					c0,1.573-0.548,2.914-1.644,4.024c-1.096,1.11-2.407,1.664-3.932,1.664c-1.569,0-2.907-0.565-4.013-1.697
					c-1.107-1.131-1.66-2.505-1.66-4.121c0-1.551,0.548-2.877,1.643-3.976C250.739,87.074,252.06,86.524,253.608,86.524z
					 M249.195,101.005h8.824v35.167h-8.824V101.005z"/>
				<path id="XMLID_120_" fill="#1D1924" d="M265.45,101.005h8.638l7.071,20.008l7.609-20.008h5.283l7.471,19.782l7.08-19.782h8.693
					l-12.832,35.167h-5.592l-7.499-20.04l-7.725,20.04h-5.528L265.45,101.005z"/>
				<path id="XMLID_117_" fill="#1D1924" d="M356.86,121.142h-28.347c0.409,2.5,1.503,4.488,3.281,5.963
					c1.777,1.476,4.045,2.214,6.804,2.214c3.297,0,6.13-1.152,8.501-3.459l7.434,3.491c-1.854,2.629-4.073,4.574-6.659,5.834
					c-2.586,1.261-5.656,1.891-9.212,1.891c-5.517,0-10.009-1.74-13.479-5.22c-3.47-3.48-5.204-7.839-5.204-13.075
					c0-5.366,1.73-9.821,5.188-13.365c3.459-3.545,7.795-5.317,13.01-5.317c5.538,0,10.041,1.772,13.511,5.317
					c3.469,3.544,5.204,8.226,5.204,14.044L356.86,121.142z M348.036,114.192c-0.583-1.961-1.732-3.556-3.449-4.784
					c-1.716-1.228-3.707-1.842-5.974-1.842c-2.46,0-4.619,0.69-6.475,2.069c-1.165,0.862-2.244,2.381-3.238,4.558H348.036z"/>
				<path id="XMLID_114_" fill="#1D1924" d="M372.101,87.429v17.454c1.594-1.594,3.318-2.79,5.172-3.588
					c1.853-0.797,3.835-1.196,5.947-1.196c4.59,0,8.49,1.735,11.701,5.204c3.211,3.47,4.816,7.919,4.816,13.349
					c0,5.236-1.66,9.616-4.978,13.14c-3.319,3.523-7.251,5.284-11.798,5.284c-2.026,0-3.911-0.361-5.656-1.083
					c-1.745-0.722-3.48-1.902-5.204-3.54v3.717h-8.759V87.429H372.101z M381.377,108.245c-2.78,0-5.086,0.949-6.917,2.844
					c-1.832,1.896-2.747,4.375-2.747,7.434c0,3.125,0.916,5.651,2.747,7.58c1.831,1.928,4.137,2.893,6.917,2.893
					c2.693,0,4.961-0.98,6.804-2.941c1.842-1.961,2.763-4.461,2.763-7.499c0-3.017-0.905-5.49-2.715-7.418
					C386.42,109.209,384.135,108.245,381.377,108.245z"/>
			</g>
			<g id="XMLID_112_">
				<path id="XMLID_58_" fill="#1D1924" d="M239.671,145.801v18.408h-1.685v-2.283c-0.716,0.871-1.52,1.527-2.411,1.967
					c-0.891,0.439-1.865,0.658-2.923,0.658c-1.881,0-3.485-0.682-4.816-2.045c-1.33-1.361-1.996-3.021-1.996-4.975
					c0-1.912,0.672-3.547,2.015-4.906s2.958-2.039,4.847-2.039c1.09,0,2.076,0.232,2.96,0.695c0.883,0.465,1.658,1.16,2.325,2.088
					v-7.568H239.671z M232.841,152.234c-0.951,0-1.829,0.234-2.634,0.701s-1.444,1.123-1.92,1.969s-0.713,1.74-0.713,2.684
					c0,0.934,0.239,1.828,0.719,2.682s1.124,1.518,1.933,1.994c0.809,0.475,1.677,0.713,2.604,0.713c0.935,0,1.82-0.236,2.658-0.707
					c0.837-0.473,1.48-1.109,1.933-1.914c0.45-0.805,0.676-1.711,0.676-2.719c0-1.537-0.506-2.822-1.518-3.854
					C235.566,152.75,234.32,152.234,232.841,152.234z"/>
				<path id="XMLID_61_" fill="#1D1924" d="M244.058,145.459c0.389,0,0.722,0.139,0.997,0.416c0.275,0.275,0.413,0.609,0.413,1
					c0,0.383-0.138,0.713-0.413,0.988c-0.275,0.277-0.608,0.416-0.997,0.416c-0.381,0-0.709-0.139-0.984-0.416
					c-0.275-0.275-0.413-0.605-0.413-0.988c0-0.391,0.138-0.725,0.413-1C243.349,145.598,243.677,145.459,244.058,145.459z
					 M243.21,150.928h1.709v13.281h-1.709V150.928z"/>
				<path id="XMLID_64_" fill="#1D1924" d="M259.846,150.928h1.709v10.584c0,1.863-0.163,3.227-0.488,4.09
					c-0.447,1.221-1.225,2.16-2.331,2.818c-1.107,0.66-2.438,0.99-3.992,0.99c-1.14,0-2.163-0.162-3.07-0.484
					s-1.646-0.754-2.215-1.297c-0.57-0.543-1.095-1.338-1.575-2.383h1.855c0.505,0.879,1.157,1.531,1.955,1.953
					c0.799,0.424,1.789,0.635,2.971,0.635c1.165,0,2.148-0.217,2.951-0.65s1.375-0.979,1.717-1.635
					c0.343-0.658,0.514-1.719,0.514-3.184v-0.684c-0.644,0.814-1.43,1.439-2.358,1.875s-1.914,0.652-2.957,0.652
					c-1.222,0-2.371-0.303-3.446-0.908c-1.075-0.607-1.906-1.424-2.492-2.449c-0.587-1.025-0.88-2.152-0.88-3.381
					s0.306-2.373,0.916-3.436c0.611-1.062,1.456-1.902,2.536-2.521c1.079-0.617,2.218-0.928,3.415-0.928
					c0.994,0,1.921,0.207,2.78,0.617s1.688,1.088,2.486,2.031V150.928z M254.804,152.234c-0.968,0-1.867,0.234-2.697,0.701
					c-0.83,0.469-1.481,1.115-1.953,1.941s-0.708,1.719-0.708,2.68c0,1.457,0.488,2.66,1.465,3.613
					c0.977,0.951,2.242,1.428,3.796,1.428c1.571,0,2.834-0.471,3.791-1.416c0.956-0.943,1.434-2.186,1.434-3.723
					c0-1.002-0.219-1.895-0.658-2.68s-1.062-1.406-1.868-1.861S255.731,152.234,254.804,152.234z"/>
				<path id="XMLID_67_" fill="#1D1924" d="M265.733,145.459c0.389,0,0.722,0.139,0.997,0.416c0.275,0.275,0.413,0.609,0.413,1
					c0,0.383-0.138,0.713-0.413,0.988c-0.275,0.277-0.608,0.416-0.997,0.416c-0.381,0-0.709-0.139-0.984-0.416
					c-0.275-0.275-0.413-0.605-0.413-0.988c0-0.391,0.138-0.725,0.413-1C265.024,145.598,265.352,145.459,265.733,145.459z
					 M264.886,150.928h1.709v13.281h-1.709V150.928z"/>
				<path id="XMLID_70_" fill="#1D1924" d="M271.56,145.996h1.709v4.932h2.71v1.477h-2.71v11.805h-1.709v-11.805h-2.331v-1.477
					h2.331V145.996z"/>
				<path id="XMLID_72_" fill="#1D1924" d="M291.701,150.928v13.281h-1.685v-2.283c-0.716,0.871-1.52,1.527-2.411,1.967
					c-0.891,0.439-1.865,0.658-2.924,0.658c-1.879,0-3.484-0.682-4.815-2.045c-1.33-1.361-1.995-3.021-1.995-4.975
					c0-1.912,0.671-3.547,2.014-4.906s2.958-2.039,4.846-2.039c1.091,0,2.077,0.232,2.961,0.695c0.883,0.465,1.658,1.16,2.325,2.088
					v-2.441H291.701z M284.871,152.234c-0.951,0-1.829,0.234-2.634,0.701s-1.444,1.123-1.92,1.969s-0.714,1.74-0.714,2.684
					c0,0.934,0.24,1.828,0.72,2.682s1.124,1.518,1.933,1.994c0.809,0.475,1.677,0.713,2.604,0.713c0.935,0,1.82-0.236,2.658-0.707
					c0.837-0.473,1.48-1.109,1.933-1.914c0.45-0.805,0.677-1.711,0.677-2.719c0-1.537-0.507-2.822-1.519-3.854
					C287.597,152.75,286.351,152.234,284.871,152.234z"/>
				<path id="XMLID_75_" fill="#1D1924" d="M295.215,145.801h1.709v18.408h-1.709V145.801z"/>
				<path id="XMLID_77_" fill="#1D1924" d="M313.925,152.381l-1.1,1.135c-0.913-0.887-1.807-1.33-2.68-1.33
					c-0.555,0-1.03,0.184-1.426,0.549c-0.396,0.367-0.594,0.793-0.594,1.281c0,0.432,0.163,0.844,0.489,1.234
					c0.326,0.398,1.012,0.865,2.055,1.402c1.272,0.66,2.137,1.295,2.594,1.904c0.448,0.619,0.673,1.314,0.673,2.088
					c0,1.092-0.383,2.014-1.149,2.771c-0.767,0.756-1.724,1.135-2.873,1.135c-0.767,0-1.498-0.166-2.194-0.5
					c-0.697-0.334-1.273-0.793-1.73-1.379l1.074-1.221c0.873,0.984,1.799,1.477,2.778,1.477c0.685,0,1.268-0.221,1.749-0.66
					s0.723-0.955,0.723-1.549c0-0.488-0.159-0.924-0.478-1.307c-0.318-0.375-1.036-0.846-2.153-1.416
					c-1.198-0.619-2.015-1.229-2.446-1.832c-0.433-0.602-0.648-1.289-0.648-2.062c0-1.008,0.345-1.848,1.033-2.514
					c0.688-0.668,1.559-1.002,2.61-1.002C311.454,150.586,312.685,151.184,313.925,152.381z"/>
				<path id="XMLID_79_" fill="#1D1924" d="M318.366,145.996h1.709v4.932h2.71v1.477h-2.71v11.805h-1.709v-11.805h-2.331v-1.477
					h2.331V145.996z"/>
				<path id="XMLID_81_" fill="#1D1924" d="M325.054,150.928h1.709v6.201c0,1.514,0.081,2.557,0.244,3.125
					c0.245,0.814,0.712,1.457,1.4,1.93c0.688,0.471,1.51,0.707,2.463,0.707c0.954,0,1.763-0.229,2.427-0.689
					c0.664-0.459,1.123-1.064,1.376-1.812c0.171-0.514,0.257-1.6,0.257-3.26v-6.201h1.745v6.52c0,1.83-0.214,3.209-0.641,4.137
					c-0.428,0.928-1.07,1.654-1.929,2.18c-0.859,0.525-1.936,0.787-3.229,0.787c-1.295,0-2.375-0.262-3.241-0.787
					c-0.867-0.525-1.514-1.258-1.941-2.197c-0.427-0.939-0.641-2.354-0.641-4.242V150.928z"/>
				<path id="XMLID_83_" fill="#1D1924" d="M353.653,145.801v18.408h-1.685v-2.283c-0.716,0.871-1.52,1.527-2.411,1.967
					c-0.891,0.439-1.865,0.658-2.923,0.658c-1.881,0-3.485-0.682-4.816-2.045c-1.33-1.361-1.996-3.021-1.996-4.975
					c0-1.912,0.672-3.547,2.015-4.906s2.958-2.039,4.847-2.039c1.09,0,2.076,0.232,2.96,0.695c0.883,0.465,1.658,1.16,2.325,2.088
					v-7.568H353.653z M346.823,152.234c-0.951,0-1.829,0.234-2.634,0.701s-1.444,1.123-1.92,1.969s-0.713,1.74-0.713,2.684
					c0,0.934,0.239,1.828,0.719,2.682s1.124,1.518,1.933,1.994c0.809,0.475,1.677,0.713,2.604,0.713c0.935,0,1.82-0.236,2.658-0.707
					c0.837-0.473,1.48-1.109,1.933-1.914c0.45-0.805,0.676-1.711,0.676-2.719c0-1.537-0.506-2.822-1.518-3.854
					C349.549,152.75,348.303,152.234,346.823,152.234z"/>
				<path id="XMLID_86_" fill="#1D1924" d="M358.039,145.459c0.389,0,0.722,0.139,0.997,0.416c0.275,0.275,0.413,0.609,0.413,1
					c0,0.383-0.138,0.713-0.413,0.988c-0.275,0.277-0.608,0.416-0.997,0.416c-0.381,0-0.709-0.139-0.984-0.416
					c-0.275-0.275-0.413-0.605-0.413-0.988c0-0.391,0.138-0.725,0.413-1C357.33,145.598,357.658,145.459,358.039,145.459z
					 M357.191,150.928h1.709v13.281h-1.709V150.928z"/>
				<path id="XMLID_89_" fill="#1D1924" d="M368.665,150.586c2.046,0,3.741,0.74,5.087,2.223c1.223,1.35,1.834,2.949,1.834,4.797
					c0,1.855-0.646,3.477-1.938,4.865c-1.292,1.387-2.953,2.08-4.982,2.08c-2.039,0-3.704-0.693-4.996-2.08
					c-1.292-1.389-1.938-3.01-1.938-4.865c0-1.84,0.61-3.434,1.834-4.785C364.91,151.33,366.61,150.586,368.665,150.586z
					 M368.658,152.258c-1.421,0-2.642,0.525-3.663,1.576c-1.021,1.049-1.531,2.318-1.531,3.809c0,0.959,0.233,1.855,0.699,2.686
					c0.465,0.83,1.094,1.471,1.886,1.922c0.793,0.451,1.662,0.678,2.609,0.678s1.817-0.227,2.609-0.678s1.421-1.092,1.887-1.922
					s0.698-1.727,0.698-2.686c0-1.49-0.513-2.76-1.537-3.809C371.29,152.783,370.071,152.258,368.658,152.258z"/>
			</g>
		</g>
		<g id="sign_2_">
			<defs>
				<path id="XMLID_55_" d="M181.668,79.809v56.736c0,10.993-4.312,21.301-12.142,29.021c-7.688,7.582-17.827,11.737-28.611,11.737
					c-0.195,0-0.39,0-0.585-0.003c-10.624-0.148-20.642-4.398-28.212-11.965c-6.979-6.982-11.138-16.049-11.855-25.752
					c1.621,0.966,3.491,1.489,5.426,1.489c1.681,0,3.275-0.384,4.696-1.081c0.771,6.864,3.848,13.255,8.834,18.241
					c5.709,5.709,13.255,8.914,21.251,9.026c8.285,0.112,16.109-3.024,22.007-8.843c5.901-5.818,9.15-13.586,9.15-21.871V96.56
					c0-1.569-1.272-2.841-2.841-2.841h0c-1.569,0-2.841,1.272-2.841,2.841v39.686c0,13.79-11.082,25.155-24.703,25.329
					c-6.746,0.1-13.117-2.475-17.919-7.215s-7.446-11.067-7.446-17.816c0-13.726,11.102-24.906,24.798-25.033
					c2.77-0.026,5.203,2.152,5.256,4.921c0.054,2.818-2.214,5.12-5.02,5.12c-8.267,0-14.992,6.725-14.992,14.992
					c0,4.04,1.583,7.83,4.46,10.671c2.877,2.838,6.687,4.386,10.733,4.318c8.155-0.103,14.791-6.961,14.791-15.287V79.58
					c0-7.029,5.66-12.762,12.661-12.881C175.77,66.576,181.668,72.6,181.668,79.809z M140.711,95.786
					c-10.92,0.051-21.149,4.358-28.824,12.14c-5.918,6.001-9.746,13.497-11.142,21.625c-0.529,3.084,1.814,5.91,4.943,5.91h0
					c2.426,0,4.534-1.73,4.939-4.123c1.043-6.151,3.934-11.824,8.409-16.362c5.819-5.9,13.586-9.149,21.872-9.149
					c2.818,0,5.093-2.321,5.019-5.156C145.856,97.903,143.482,95.773,140.711,95.786z"/>
			</defs>
			
				<radialGradient id="XMLID_2_" cx="-469.3908" cy="-639.9973" r="105.798" gradientTransform="matrix(0.796 0 0 0.796 498.671 626.9434)" gradientUnits="userSpaceOnUse">
				<stop  offset="0.2697" style="stop-color:#F70B5F"/>
				<stop  offset="0.7107" style="stop-color:#BB0A55"/>
				<stop  offset="0.911" style="stop-color:#A50A55"/>
			</radialGradient>
			<use xlink:href="#XMLID_55_"  overflow="visible" fill="url(#XMLID_2_)"/>
			<clipPath id="XMLID_3_">
				<use xlink:href="#XMLID_55_"  overflow="visible"/>
			</clipPath>
		</g>
	</g>
</g>
</svg>
