<svg width="274" height="216" viewBox="0 0 274 216" fill="none" xmlns="http://www.w3.org/2000/svg">
<path opacity="0.2" d="M89.4913 6.33064C85.6242 5.91134 81.6464 5.65099 77.9394 6.17853C67.8531 7.61304 62.517 14.7018 63.4785 21.3249C64.4399 27.948 70.2198 34.1278 76.276 39.8561C82.3323 45.5843 88.9375 51.2939 91.9701 57.7684C93.4818 61.0023 94.0145 64.5245 91.9408 67.4417C88.7421 71.9408 80.1052 73.862 71.9868 73.7125C63.8684 73.5629 55.8569 71.7883 47.7896 70.7132C44.404 70.2694 40.911 69.9487 37.6495 70.3644C34.0702 70.8157 31.0092 72.1035 28.1781 73.4774C17.129 78.8703 7.97638 86.745 8.55413 95.896C9.20519 106.269 22.2228 115.553 36.8731 121.195C41.7235 123.066 46.8862 124.687 51.0872 127.122C62.1544 133.54 63.8656 143.918 61.9401 152.783C60.0146 161.647 60.5325 164.523 61.9401 173.599C63.6068 184.156 70.4143 193.08 85.332 198.766C106.832 204.678 141.197 204.965 158.832 184.178C160.786 181.245 167.332 177.283 171.454 175.482C173.972 174.373 185.15 173.905 188.281 173.599C197.718 172.677 221.551 181.766 231.057 181.042C240.564 180.319 250.243 178.274 255.781 173.599C263.621 166.962 261.06 157.383 261.834 148.843C263.578 129.383 255.989 102.98 264.549 84.6109C267.346 78.6053 268.781 71.8166 264.213 65.8501C261.108 61.78 255.558 58.5906 249.658 55.9728C236.695 50.2028 221.683 46.8347 206.911 43.5415C186.381 38.9699 161.19 36.4264 145.868 26.0642C131.164 16.1227 110.56 8.15595 89.4913 6.33064Z" fill="#B2904D"/>
<g opacity="0.5">
<path opacity="0.5" d="M234.227 82.9928V82.7628L158.628 24.6308C158.58 24.5955 158.523 24.5764 158.463 24.5764C158.404 24.5764 158.346 24.5955 158.298 24.6308L82.6963 82.7628V172.87H82.8404V173.014H234.374V82.9069L234.227 82.9928Z" fill="url(#paint0_linear)"/>
</g>
<path d="M231.617 170.357H85.3174V83.3531L158.467 27.1052L231.617 83.3531V170.357Z" fill="white"/>
<path d="M226.352 165.2H90.5815V84.4585L158.467 32.2588L226.352 84.4585V165.2Z" fill="#E0E0E0"/>
<path d="M181.497 31.0524L98.6772 52.7644L126.291 158.098L209.111 136.387L181.497 31.0524Z" fill="#B2904D"/>
<path d="M201.692 47.0552H116.073V155.949H201.692V47.0552Z" fill="#F5F5F5"/>
<path opacity="0.05" d="M86.0098 83.4915L159.16 126.993L86.0098 170.495V83.4915Z" fill="black"/>
<path d="M85.4556 83.4915L158.605 126.993L85.4556 170.495V83.4915Z" fill="white"/>
<path opacity="0.05" d="M231.201 83.4915L158.051 126.993L231.201 170.495V83.4915Z" fill="black"/>
<path d="M231.755 83.4915L158.605 126.993L231.755 170.495V83.4915Z" fill="white"/>
<path opacity="0.05" d="M85.4556 169.11L158.605 112.031L231.755 169.11H85.4556Z" fill="black"/>
<path d="M85.4556 170.496L158.605 113.417L231.755 170.496H85.4556Z" fill="white"/>
<path opacity="0.5" d="M155.419 52.0427H121.061V54.8136H155.419V52.0427Z" fill="#B2904D"/>
<path opacity="0.5" d="M195.319 63.1257H121.061V65.8966H195.319V63.1257Z" fill="#B2904D"/>
<path opacity="0.5" d="M195.319 70.3298H121.061V73.1007H195.319V70.3298Z" fill="#B2904D"/>
<path opacity="0.4" d="M195.319 77.5342H121.061V80.305H195.319V77.5342Z" fill="#B2904D"/>
<path opacity="0.4" d="M195.319 84.7385H121.061V87.5094H195.319V84.7385Z" fill="#B2904D"/>
<path opacity="0.3" d="M163.455 91.9426H121.061V94.7135H163.455V91.9426Z" fill="#B2904D"/>
<path opacity="0.3" d="M178.971 99.1467H121.061V101.918H178.971V99.1467Z" fill="#B2904D"/>
<defs>
<linearGradient id="paint0_linear" x1="96675.8" y1="109950" x2="96675.8" y2="30424.6" gradientUnits="userSpaceOnUse">
<stop stop-color="#808080" stop-opacity="0.25"/>
<stop offset="0.54" stop-color="#808080" stop-opacity="0.12"/>
<stop offset="1" stop-color="#808080" stop-opacity="0.1"/>
</linearGradient>
</defs>
</svg>
