<svg width="18" height="18" viewBox="0 0 18 18" fill="none" xmlns="http://www.w3.org/2000/svg">
<path d="M14.7094 10.3628C14.0701 9.72816 13.054 9.70115 12.3945 10.3156L10.9342 11.6591C10.8198 11.7672 10.6381 11.7807 10.5102 11.6861C8.76058 10.4033 7.22625 8.86395 5.94765 7.10851C5.85344 6.98022 5.8669 6.80468 5.97457 6.68315L7.31374 5.21803C7.91939 4.55637 7.8992 3.53686 7.26663 2.89545L4.87093 0.491852C4.521 0.140764 4.0432 -0.0347796 3.55195 0.00573056C3.0607 0.0462407 2.61655 0.302805 2.32718 0.707906L0.779401 2.9022C-0.317506 4.45509 -0.250212 6.56837 0.940908 8.05374C1.38505 8.60738 3.22221 10.6937 3.67308 11.2135C3.86151 11.4296 4.29016 11.3438 4.49878 11.1548C4.71412 10.9657 4.60848 10.7207 4.42006 10.5114C3.97591 9.99823 2.16568 7.95247 1.72826 7.40558C0.833237 6.27805 0.779401 4.67115 1.61386 3.49635L2.26662 2.57137L5.43621 5.75142L5.22087 5.98773C4.78345 6.4671 4.74307 7.18953 5.11992 7.71616C6.45909 9.55262 8.06744 11.173 9.90459 12.5166C10.4228 12.9015 11.1495 12.8609 11.6273 12.4153L11.8629 12.1993L15.0325 15.3793L14.1105 16.0342C12.9396 16.8714 11.3312 16.8174 10.2141 15.9127C8.16165 14.2518 6.2101 12.4356 4.42006 10.5114C3.9672 10.0257 3.23307 10.7248 3.67308 11.2135C5.49677 13.1715 7.48198 15.0215 9.57485 16.7162C10.3487 17.3441 11.2976 17.6614 12.2465 17.6614C13.1078 17.6614 13.9692 17.4048 14.7027 16.8782L16.8898 15.3253C17.2936 15.0417 17.5493 14.5894 17.5897 14.0965C17.63 13.6036 17.4551 13.1175 17.1051 12.7732L14.7094 10.3628ZM2.86554 1.72066L3.16164 1.30205C3.26931 1.14677 3.44428 1.04549 3.63943 1.03199C3.82786 1.01848 4.01629 1.086 4.15088 1.22103L6.54658 3.62464C6.79557 3.87445 6.8023 4.26605 6.56676 4.52261L6.12935 4.99523L2.86554 1.72066ZM16.5735 14.0087C16.5601 14.1978 16.4591 14.3733 16.3043 14.4881L15.8804 14.7784L12.6166 11.5039L13.0876 11.065C13.3434 10.8287 13.7404 10.8354 13.9827 11.0852L16.3784 13.4889C16.5197 13.6306 16.587 13.8129 16.5735 14.0087Z" fill="#B2904D"/>
</svg>
