<svg width="20" height="13" viewBox="0 0 20 13" fill="none" xmlns="http://www.w3.org/2000/svg">
<path fill-rule="evenodd" clip-rule="evenodd" d="M19.5171 1.76036e-05C19.6953 2.19003e-05 19.7845 0.215475 19.6585 0.341459L7.36951 12.6272C6.87293 13.1237 6.08091 13.1243 5.58356 12.6287C3.50964 10.562 2.26003 9.31669 0.343251 7.40655C0.216921 7.28066 0.305745 7.06449 0.484093 7.06449C1.1035 7.06449 1.63749 7.06449 2.74164 7.06449C2.79456 7.06449 2.84608 7.08558 2.88357 7.12294C4.00225 8.23775 4.97724 9.20936 6.33357 10.561C6.4117 10.6389 6.53926 10.6377 6.61727 10.5597C10.761 6.41705 13.3557 3.82303 17.1207 0.0590633C17.1582 0.0215701 17.2095 2.76579e-05 17.2625 2.49092e-05C18.0124 -1.39568e-05 18.7861 -2.28392e-08 19.5171 1.76036e-05Z" fill="white"/>
</svg>
