<svg width="125" height="83" viewBox="0 0 125 83" fill="none" xmlns="http://www.w3.org/2000/svg">
<path d="M42.9236 82.6361L41.3917 79.7195L0 0H14.6712V3.38793H5.56799L42.8647 75.2121L74.0926 13.5812H88.8522L88.9995 13.6107C92.2402 14.1409 95.2156 15.0837 97.8965 16.4094C100.46 17.6467 102.728 19.267 104.702 21.1525C108.355 24.6877 110.859 29.2835 111.92 34.4096C112.45 37.0021 112.627 39.7125 112.391 42.3933C112.155 45.0742 111.566 47.6962 110.594 50.2003C109.592 52.7634 108.237 55.1202 106.558 57.2119C104.79 59.4214 102.728 61.2774 100.371 62.8093L98.5447 59.9517C106.587 54.7667 110.623 44.7796 108.62 35.0872C106.617 25.3948 99.3106 18.8251 88.5871 16.9691H76.2138L42.9236 82.6361Z" fill="#B39A58"/>
<path d="M89.9423 80.3088H51.3493L58.5376 67.4936L61.4836 69.1434L57.1235 76.9209H89.5593C114.571 71.0288 122.466 53.3232 121.553 38.7109C120.552 23.0675 109.033 5.39131 89.6771 3.38801H68.1122L42.8942 53.2348L28.7827 25.1002L31.7877 23.5978L42.8942 45.7224L66.0205 0.029541H89.8244H89.9128C94.8032 0.530366 99.4579 1.97392 103.759 4.30128C107.795 6.5108 111.448 9.45683 114.571 13.0804C116.074 14.8186 117.458 16.7335 118.666 18.7074C119.874 20.6812 120.934 22.7729 121.789 24.9235C122.673 27.0741 123.38 29.3131 123.91 31.5815C124.44 33.85 124.764 36.1773 124.912 38.4752C125.206 42.9826 124.764 47.3722 123.586 51.5556C122.349 55.9746 120.345 60.0696 117.605 63.7227C114.689 67.6114 110.977 70.9699 106.558 73.6803C101.844 76.5968 96.3057 78.7769 90.119 80.2204L89.9423 80.3088Z" fill="#B39A58"/>
</svg>
