<svg width="90" height="60" viewBox="0 0 90 60" fill="none" xmlns="http://www.w3.org/2000/svg">
<path d="M30.905 59.498L29.802 57.3981L0 0H10.5633V2.43931H4.00896L30.8626 54.1527L53.3467 9.77846H63.9736L64.0797 9.79967C66.4129 10.1815 68.5553 10.8602 70.4855 11.8148C72.3309 12.7056 73.9642 13.8723 75.3853 15.2298C78.0155 17.7752 79.8185 21.0841 80.5821 24.7749C80.9639 26.6415 81.0912 28.593 80.9215 30.5232C80.7518 32.4534 80.3276 34.3413 79.6276 36.1442C78.9064 37.9896 77.9307 39.6865 76.7216 41.1926C75.449 42.7834 73.9642 44.1197 72.2673 45.2227L70.9521 43.1652C76.7429 39.432 79.6488 32.2413 78.2064 25.2628C76.7641 18.2842 71.5036 13.5541 63.7827 12.2178H54.8739L30.905 59.498Z" fill="#B39A58"/>
<path d="M64.7584 57.8223H36.9715L42.1471 48.5954L44.2682 49.7832L41.1289 55.383H64.4827C82.4912 51.1407 88.1758 38.3927 87.5183 27.8718C86.7971 16.6086 78.5034 3.88172 64.5675 2.43934H49.0408L30.8838 38.329L20.7236 18.0721L22.8871 16.9904L30.8838 32.9201L47.5348 0.0212402H64.6736H64.7372C68.2583 0.381834 71.6097 1.42119 74.7066 3.09689C77.6126 4.68775 80.2428 6.80889 82.4912 9.41789C83.573 10.6694 84.5699 12.0481 85.4396 13.4693C86.3092 14.8904 87.0729 16.3964 87.688 17.9449C88.3243 19.4933 88.8334 21.1054 89.2152 22.7387C89.597 24.3719 89.8303 26.0476 89.9364 27.7021C90.1485 30.9475 89.8303 34.108 88.9819 37.12C88.091 40.3017 86.6486 43.2501 84.676 45.8803C82.576 48.6802 79.9034 51.0983 76.7217 53.0497C73.3279 55.1497 69.3401 56.7193 64.8857 57.7587L64.7584 57.8223Z" fill="#B39A58"/>
</svg>
