<svg width="210" height="140" viewBox="0 0 210 140" fill="none" xmlns="http://www.w3.org/2000/svg">
<g filter="url(#filter0_i)">
<path d="M72.1117 139.779L69.5381 134.879L0 0.949951H24.6477V6.64168H9.35423L72.0127 127.306L124.476 23.7664H149.272L149.519 23.8158C154.963 24.7067 159.962 26.2905 164.466 28.5177C168.772 30.5964 172.583 33.3186 175.899 36.4861C182.036 42.4253 186.243 50.1463 188.025 58.7581C188.916 63.1135 189.213 67.6669 188.817 72.1708C188.421 76.6747 187.431 81.0796 185.798 85.2865C184.115 89.5924 181.838 93.5519 179.017 97.0659C176.048 100.778 172.583 103.896 168.624 106.47L165.555 101.669C179.067 92.958 185.847 76.1797 182.482 59.8965C179.116 43.6132 166.842 32.5762 148.826 29.4581H128.039L72.1117 139.779Z" fill="#B39A58"/>
<path d="M151.103 135.869H86.2668L98.3431 114.339L103.292 117.111L95.9675 130.177H150.46C192.479 120.278 205.744 90.5329 204.209 65.9842C202.527 39.7033 183.175 10.0073 150.658 6.64175H114.428L72.0622 90.3844L48.3549 43.1183L53.4032 40.5941L72.0622 77.7636L110.914 0.999512H150.905H151.053C159.269 1.8409 167.089 4.26607 174.315 8.17604C181.096 11.888 187.233 16.8374 192.479 22.925C195.004 25.8451 197.33 29.0622 199.359 32.3783C201.388 35.6943 203.17 39.2083 204.605 42.8213C206.09 46.4344 207.278 50.1958 208.169 54.0068C209.06 57.8178 209.604 61.7278 209.852 65.5883C210.346 73.1607 209.604 80.5352 207.624 87.5633C205.546 94.9873 202.18 101.867 197.577 108.004C192.677 114.537 186.441 120.179 179.017 124.733C171.098 129.633 161.794 133.295 151.4 135.72L151.103 135.869Z" fill="#B39A58"/>
</g>
<defs>
<filter id="filter0_i" x="0" y="0.949951" width="210" height="139.829" filterUnits="userSpaceOnUse" color-interpolation-filters="sRGB">
<feFlood flood-opacity="0" result="BackgroundImageFix"/>
<feBlend mode="normal" in="SourceGraphic" in2="BackgroundImageFix" result="shape"/>
<feColorMatrix in="SourceAlpha" type="matrix" values="0 0 0 0 0 0 0 0 0 0 0 0 0 0 0 0 0 0 127 0" result="hardAlpha"/>
<feOffset dy="1"/>
<feGaussianBlur stdDeviation="0.5"/>
<feComposite in2="hardAlpha" operator="arithmetic" k2="-1" k3="1"/>
<feColorMatrix type="matrix" values="0 0 0 0 0.345833 0 0 0 0 0.259533 0 0 0 0 0.0317014 0 0 0 0.38 0"/>
<feBlend mode="normal" in2="shape" result="effect1_innerShadow"/>
</filter>
</defs>
</svg>
